<svg width="48" height="48" viewBox="0 0 48 48" fill="none" xmlns="http://www.w3.org/2000/svg">
<rect width="48" height="48" rx="24" fill="#AC8964"/>
<path d="M26.7808 31.7005L26.1906 31.2377L26.7808 31.7005ZM21.2192 31.7005L20.629 32.1633L21.2192 31.7005ZM24 34.0055V33.2555V34.0055ZM31.25 21.6087C31.25 22.8352 30.6104 24.4764 29.6037 26.256C28.6137 28.0063 27.3342 29.7794 26.1906 31.2377L27.371 32.1633C28.5371 30.6762 29.8672 28.837 30.9094 26.9945C31.9349 25.1814 32.75 23.2494 32.75 21.6087H31.25ZM21.8094 31.2377C20.6658 29.7794 19.3863 28.0063 18.3963 26.256C17.3896 24.4764 16.75 22.8352 16.75 21.6087H15.25C15.25 23.2494 16.0651 25.1814 17.0906 26.9945C18.1328 28.837 19.4629 30.6762 20.629 32.1633L21.8094 31.2377ZM16.75 21.6087C16.75 17.2157 20.0468 13.75 24 13.75V12.25C19.1167 12.25 15.25 16.4928 15.25 21.6087H16.75ZM24 13.75C27.9532 13.75 31.25 17.2157 31.25 21.6087H32.75C32.75 16.4928 28.8833 12.25 24 12.25V13.75ZM26.1906 31.2377C25.5717 32.027 25.1641 32.5426 24.7992 32.8741C24.4664 33.1764 24.2442 33.2555 24 33.2555V34.7555C24.7291 34.7555 25.2948 34.4504 25.8078 33.9844C26.2886 33.5476 26.7849 32.9107 27.371 32.1633L26.1906 31.2377ZM20.629 32.1633C21.2151 32.9107 21.7114 33.5476 22.1922 33.9844C22.7052 34.4504 23.2709 34.7555 24 34.7555V33.2555C23.7558 33.2555 23.5336 33.1764 23.2008 32.8741C22.8359 32.5426 22.4283 32.027 21.8094 31.2377L20.629 32.1633ZM20.25 22C20.25 24.0711 21.9289 25.75 24 25.75V24.25C22.7574 24.25 21.75 23.2426 21.75 22H20.25ZM24 25.75C26.0711 25.75 27.75 24.0711 27.75 22H26.25C26.25 23.2426 25.2426 24.25 24 24.25V25.75ZM27.75 22C27.75 19.9289 26.0711 18.25 24 18.25V19.75C25.2426 19.75 26.25 20.7574 26.25 22H27.75ZM24 18.25C21.9289 18.25 20.25 19.9289 20.25 22H21.75C21.75 20.7574 22.7574 19.75 24 19.75V18.25Z" fill="white"/>
</svg>
