<svg width="62" height="27" viewBox="0 0 62 27" fill="none" xmlns="http://www.w3.org/2000/svg">
<path d="M11.7026 3.38741C12.4316 2.47554 12.9264 1.25117 12.7959 0C11.7287 0.0530664 10.4263 0.704077 9.67236 1.61666C8.99536 2.39816 8.39617 3.6738 8.55238 4.87251C9.75038 4.97643 10.9473 4.2737 11.7026 3.38741Z" fill="black"/>
<path d="M12.7829 5.10658C11.0431 5.00295 9.56385 6.094 8.73301 6.094C7.90172 6.094 6.62943 5.1588 5.25335 5.18401C3.4623 5.21032 1.80041 6.22299 0.891523 7.83362C-0.977897 11.0557 0.398184 15.8351 2.2161 18.4593C3.09891 19.7576 4.16286 21.1871 5.56478 21.1357C6.88935 21.0837 7.40853 20.278 9.0186 20.278C10.6275 20.278 11.0952 21.1357 12.4973 21.1097C13.9514 21.0837 14.8604 19.8108 15.7432 18.5113C16.756 17.0313 17.1706 15.6023 17.1966 15.5239C17.1706 15.4979 14.3928 14.4323 14.3671 11.237C14.3408 8.56153 16.5479 7.28894 16.6518 7.21002C15.4054 5.36666 13.458 5.1588 12.7829 5.10658Z" fill="black"/>
<path d="M27.9315 1.4858C31.7129 1.4858 34.346 4.09235 34.346 7.8873C34.346 11.6958 31.6587 14.3159 27.8367 14.3159H23.6499V20.974H20.625V1.48579H27.9315V1.4858ZM23.6499 11.7768H27.1208C29.7544 11.7768 31.2534 10.3589 31.2534 7.90084C31.2534 5.44304 29.7544 4.03843 27.1343 4.03843H23.6499V11.7768Z" fill="black"/>
<path d="M35.1367 16.936C35.1367 14.4508 37.041 12.9248 40.4176 12.7357L44.3068 12.5062V11.4124C44.3068 9.83217 43.2398 8.88682 41.4575 8.88682C39.7689 8.88682 38.7155 9.69697 38.4591 10.9666H35.7041C35.8661 8.40047 38.0538 6.50977 41.5653 6.50977C45.0091 6.50977 47.2103 8.333 47.2103 11.1826V20.974H44.4147V18.6376H44.3474C43.5237 20.2177 41.7273 21.217 39.8637 21.217C37.0816 21.217 35.1367 19.4883 35.1367 16.936ZM44.3068 15.653V14.5321L40.8088 14.748C39.0666 14.8697 38.0809 15.6395 38.0809 16.855C38.0809 18.0973 39.1072 18.9077 40.6739 18.9077C42.7131 18.9077 44.3068 17.5031 44.3068 15.653Z" fill="black"/>
<path d="M49.8499 26.2006V23.8371C50.0656 23.8911 50.5517 23.8911 50.795 23.8911C52.1454 23.8911 52.8748 23.3239 53.3203 21.8654C53.3203 21.8383 53.5771 21.0011 53.5771 20.9875L48.4453 6.76637H51.6052L55.198 18.3271H55.2516L58.8444 6.76637H61.9235L56.6021 21.7167C55.3871 25.1607 53.9825 26.2681 51.0383 26.2681C50.795 26.2681 50.0656 26.241 49.8499 26.2006Z" fill="black"/>
</svg>
