<svg width="23" height="29" viewBox="0 0 23 29" fill="none" xmlns="http://www.w3.org/2000/svg">
<path d="M15.5456 4.49956C16.514 3.28831 17.1712 1.66195 16.9979 0C15.5803 0.0704891 13.8504 0.935239 12.8488 2.14744C11.9496 3.18551 11.1536 4.87997 11.3611 6.47225C12.9525 6.61028 14.5423 5.67683 15.5456 4.49956Z" fill="white"/>
<path d="M16.9797 6.78315C14.6687 6.64549 12.7038 8.09475 11.6002 8.09475C10.496 8.09475 8.806 6.85251 6.97812 6.886C4.59903 6.92094 2.39151 8.2661 1.18423 10.4055C-1.29896 14.6854 0.528915 21.034 2.94368 24.5198C4.11634 26.2443 5.5296 28.1431 7.39179 28.0749C9.15125 28.0059 9.84088 26.9356 11.9796 26.9356C14.1167 26.9356 14.7379 28.0749 16.6004 28.0404C18.5318 28.0059 19.7393 26.315 20.912 24.5888C22.2573 22.623 22.808 20.7248 22.8426 20.6206C22.808 20.5861 19.1182 19.1706 19.084 14.9263C19.0492 11.3724 21.9809 9.68201 22.1188 9.57718C20.4633 7.12861 17.8765 6.85251 16.9797 6.78315Z" fill="white"/>
</svg>
