<svg width="23" height="28" viewBox="0 0 23 28" fill="none" xmlns="http://www.w3.org/2000/svg">
<path d="M15.6529 4.48726C16.628 3.27932 17.2896 1.6574 17.1151 0C15.6878 0.0702964 13.9459 0.932682 12.9375 2.14158C12.032 3.17681 11.2306 4.86663 11.4395 6.45456C13.0418 6.59221 14.6427 5.66132 15.6529 4.48726Z" fill="#AC8964"/>
<path d="M17.0967 6.76466C14.7698 6.62738 12.7914 8.07267 11.6802 8.07267C10.5683 8.07267 8.86668 6.83384 7.02621 6.86723C4.63072 6.90208 2.40799 8.24355 1.19239 10.3771C-1.30791 14.6454 0.532559 20.9766 2.96396 24.4528C4.14471 26.1726 5.56771 28.0663 7.44273 27.9982C9.2143 27.9294 9.90869 26.8621 12.0621 26.8621C14.214 26.8621 14.8395 27.9982 16.7148 27.9638C18.6595 27.9294 19.8754 26.2432 21.0561 24.5217C22.4106 22.5612 22.9651 20.6682 23 20.5643C22.9651 20.5299 19.25 19.1183 19.2155 14.8855C19.1804 11.3414 22.1323 9.6556 22.2713 9.55105C20.6043 7.10917 17.9997 6.83384 17.0967 6.76466Z" fill="#AC8964"/>
</svg>
