<svg width="21" height="20" viewBox="0 0 21 20" fill="none" xmlns="http://www.w3.org/2000/svg">
<path d="M1 1L3.08 1.36L4.043 12.833C4.12 13.77 4.903 14.489 5.843 14.486H16.752C17.649 14.488 18.41 13.828 18.537 12.94L19.486 6.382C19.592 5.649 19.083 4.969 18.351 4.863C18.287 4.854 3.414 4.849 3.414 4.849M12.375 8.5449H15.148M5.4043 17.9526C5.7053 17.9526 5.9483 18.1966 5.9483 18.4966C5.9483 18.7976 5.7053 19.0416 5.4043 19.0416C5.1033 19.0416 4.8603 18.7976 4.8603 18.4966C4.8603 18.1966 5.1033 17.9526 5.4043 17.9526ZM16.6846 17.9526C16.9856 17.9526 17.2296 18.1966 17.2296 18.4966C17.2296 18.7976 16.9856 19.0416 16.6846 19.0416C16.3836 19.0416 16.1406 18.7976 16.1406 18.4966C16.1406 18.1966 16.3836 17.9526 16.6846 17.9526Z" stroke="#AC8964" stroke-width="1.5" stroke-linecap="round" stroke-linejoin="round"/>
</svg>
