<svg width="12" height="6" viewBox="0 0 12 6" fill="none" xmlns="http://www.w3.org/2000/svg">
<path d="M11.5327 4.47204C11.8243 4.76624 11.8222 5.24111 11.528 5.53269C11.2338 5.82427 10.7589 5.82216 10.4673 5.52796L8.72 3.76499C8.01086 3.0495 7.52282 2.55869 7.1093 2.22659C6.7076 1.904 6.44958 1.79332 6.2185 1.76387C6.07341 1.74538 5.92659 1.74538 5.7815 1.76387C5.55042 1.79332 5.2924 1.90399 4.89071 2.22659C4.47718 2.55869 3.98914 3.04949 3.28 3.76499L1.53269 5.52796C1.24111 5.82216 0.766238 5.82427 0.472041 5.53269C0.177844 5.24111 0.175726 4.76624 0.467309 4.47204L2.24609 2.67731C2.91604 2.00134 3.46359 1.44886 3.95146 1.05706C4.45879 0.649627 4.97373 0.354694 5.59184 0.275908C5.86287 0.241363 6.13714 0.241364 6.40816 0.275908C7.02628 0.354694 7.54122 0.649628 8.04854 1.05706C8.53641 1.44886 9.08396 2.00133 9.7539 2.67731L11.5327 4.47204Z" fill="#15120F"/>
</svg>
