<svg width="24" height="24" viewBox="0 0 24 24" fill="none" xmlns="http://www.w3.org/2000/svg">
<path d="M16.0004 10V6.08268M8.0004 10V6.08268M8.0004 6.08268V5C8.0004 2.79086 9.79126 1 12.0004 1C14.2095 1 16.0004 2.79086 16.0004 5V6.08268M8.0004 6.08268C8.78711 6 9.78963 6 11.1883 6H12.8125C14.2112 6 15.2137 6 16.0004 6.08268M8.0004 6.08268C7.39835 6.14596 6.92268 6.25766 6.49256 6.45483C5.61826 6.85563 4.87812 7.50008 4.36086 8.31092C3.77386 9.23109 3.60403 10.4539 3.26436 12.8995C2.82819 16.0399 2.6101 17.6101 3.08963 18.8297C3.51061 19.9003 4.2879 20.793 5.29044 21.3573C6.43241 22 8.01771 22 11.1883 22H12.8125C15.9831 22 17.5684 22 18.7104 21.3573C19.7129 20.793 20.4902 19.9003 20.9112 18.8297C21.3907 17.6101 21.1726 16.0399 20.7364 12.8995C20.3968 10.4539 20.2269 9.23109 19.6399 8.31092C19.1227 7.50008 18.3825 6.85563 17.5082 6.45483C17.0781 6.25766 16.6025 6.14596 16.0004 6.08268" stroke="#AC8964" stroke-width="1.5" stroke-linecap="round"/>
</svg>
