<svg width="65" height="25" viewBox="0 0 65 25" fill="none" xmlns="http://www.w3.org/2000/svg">
<path fill-rule="evenodd" clip-rule="evenodd" d="M30.4285 19.3487V12.093V12.0916H34.3535C35.9718 12.0925 37.3318 11.584 38.4336 10.5661C39.547 9.6 40.1695 8.21096 40.1379 6.76311C40.1599 5.32331 39.5385 3.94456 38.4336 2.98157C37.3415 1.95806 35.8726 1.39961 34.3535 1.43036H28.0527V19.3487H30.4285ZM30.4292 9.89128V3.63638V3.63495H34.4133C35.3013 3.61076 36.1573 3.95698 36.7639 4.58569C37.3743 5.16067 37.7187 5.95043 37.7187 6.77526C37.7187 7.6001 37.3743 8.38986 36.7639 8.96484C36.1498 9.58032 35.2965 9.91664 34.4133 9.89128H30.4292Z" fill="#5F6368"/>
<path fill-rule="evenodd" clip-rule="evenodd" d="M49.769 8.05271C48.7528 7.14342 47.3667 6.68878 45.6108 6.68878C43.3551 6.68878 41.6517 7.48941 40.5008 9.09066L42.5932 10.3674C43.3664 9.28272 44.4165 8.74039 45.7436 8.74039C46.5896 8.73079 47.4084 9.03044 48.0366 9.57962C48.663 10.0814 49.0234 10.8295 49.0179 11.6169V12.1431C48.105 11.6427 46.9432 11.3925 45.5325 11.3925C43.8799 11.3944 42.5587 11.7699 41.5691 12.5191C40.5795 13.2682 40.0846 14.2771 40.0846 15.5457C40.0631 16.7009 40.5802 17.8039 41.4924 18.5481C42.4308 19.3487 43.5971 19.749 44.991 19.749C46.624 19.749 47.9324 19.0485 48.9161 17.6474H49.0194V19.3487H51.2918V11.7928C51.2928 10.2087 50.7852 8.96199 49.769 8.05271ZM43.3254 17.0969C42.8277 16.7494 42.5342 16.1901 42.5374 15.5958C42.5374 14.9281 42.8606 14.3719 43.5113 13.9144C44.1557 13.4636 44.9604 13.2382 45.9254 13.2382C47.2505 13.2382 48.2834 13.5241 49.0242 14.096C49.0242 15.0625 48.6307 15.9046 47.8437 16.6223C47.1349 17.3092 46.1739 17.6958 45.1714 17.6974C44.503 17.7095 43.8508 17.4974 43.3254 17.0969Z" fill="#5F6368"/>
<path fill-rule="evenodd" clip-rule="evenodd" d="M64.3354 7.08909L56.4026 24.7529H53.9502L56.894 18.5724L51.6777 7.08909H54.26L58.0302 15.896H58.0818L61.7487 7.08909L64.3354 7.08909Z" fill="#5F6368"/>
<path fill-rule="evenodd" clip-rule="evenodd" d="M20.8273 10.5289C20.8282 9.82745 20.767 9.1272 20.6443 8.43586H10.625V12.4004H16.3636C16.1263 13.6799 15.3598 14.8099 14.2417 15.5286V18.102H17.6666C19.6719 16.3106 20.8273 13.6614 20.8273 10.5289Z" fill="#4285F4"/>
<path fill-rule="evenodd" clip-rule="evenodd" d="M10.6234 20.5882C13.4905 20.5882 15.9046 19.6761 17.665 18.1034L14.2401 15.53C13.2868 16.1562 12.0592 16.5136 10.6234 16.5136C7.85222 16.5136 5.50011 14.7036 4.65902 12.2646H1.13086V14.9167C2.93427 18.3936 6.60714 20.5881 10.6234 20.5882Z" fill="#34A853"/>
<path fill-rule="evenodd" clip-rule="evenodd" d="M4.65946 12.2646C4.21481 10.9865 4.21481 9.60242 4.65946 8.32434V5.67226H1.1313C-0.3771 8.58043 -0.3771 12.0085 1.1313 14.9166L4.65946 12.2646Z" fill="#FBBC04"/>
<path fill-rule="evenodd" clip-rule="evenodd" d="M10.6234 4.0753C12.1385 4.05132 13.6025 4.60597 14.699 5.61937L17.7314 2.68135C15.8085 0.931514 13.2612 -0.0291753 10.6234 0.000675369C6.60714 0.000852719 2.93427 2.19531 1.13086 5.67226L4.65902 8.32434C5.50011 5.88529 7.85222 4.0753 10.6234 4.0753Z" fill="#EA4335"/>
</svg>
