<svg width="24" height="24" viewBox="0 0 24 24" fill="none" xmlns="http://www.w3.org/2000/svg">
<path d="M16.6028 6.54844C15.3638 5.36678 13.7103 4.72304 11.9996 4.7495C8.86907 4.7495 6.21034 6.86148 5.26236 9.70538C4.75971 11.1957 4.75971 12.8095 5.26236 14.2998L5.26676 14.2998C6.21914 17.1393 8.87347 19.2513 12.004 19.2513C13.62 19.2513 15.0073 18.838 16.0825 18.1079V18.1049C17.3479 17.2672 18.2121 15.9488 18.4811 14.4585H11.9996V9.83772H23.318C23.4591 10.6402 23.5252 11.4603 23.5252 12.276C23.5252 15.9257 22.2209 19.0114 19.9514 21.1013L19.9537 21.1032C17.9652 22.9374 15.2359 24 11.9996 24C7.46253 24 3.31349 21.4427 1.27645 17.3906C-0.425486 14 -0.425482 10.0052 1.27646 6.6146C3.3135 2.55815 7.46253 0.000808638 11.9996 0.000808638C14.9802 -0.0344648 17.8594 1.08547 20.0287 3.12251L16.6028 6.54844Z" fill="white"/>
</svg>
