<svg width="39" height="39" viewBox="0 0 39 39" fill="none" xmlns="http://www.w3.org/2000/svg">
<path d="M37.9066 25.3972C36.061 23.4977 32.5118 19.6605 28.6526 19.6605C24.7915 19.6605 22.5659 28.1247 18.8527 28.1247C15.1396 28.1247 11.7663 24.2975 8.79093 26.751C5.81557 29.2024 3.00018 34.2153 3.00018 34.2153M28.175 1H10.827C4.78762 1 1 5.27864 1 11.3337V27.6663C1 33.7214 4.77158 38 10.827 38H28.165C34.2304 38 38 33.7214 38 27.6663V11.3337C38.008 5.27864 34.2364 1 28.175 1ZM16.9034 13.0678C16.9034 15.1073 15.2517 16.759 13.2122 16.759C11.1746 16.759 9.52098 15.1073 9.52098 13.0678C9.52098 11.0282 11.1746 9.37659 13.2122 9.37659C15.2497 9.37859 16.9014 11.0302 16.9034 13.0678Z" stroke="#B2B2B2" stroke-width="2" stroke-linecap="round" stroke-linejoin="round"/>
</svg>
