<svg width="48" height="48" viewBox="0 0 48 48" fill="none" xmlns="http://www.w3.org/2000/svg">
<rect width="48" height="48" rx="24" fill="#EA4335"/>
<path d="M19.2178 32.9384L19.1005 33.6792H19.1005L19.2178 32.9384ZM15.0616 28.7822L15.8023 28.6648L15.0616 28.7822ZM32.9384 28.7822L33.6792 28.8995V28.8995L32.9384 28.7822ZM28.7822 32.9384L28.8995 33.6792H28.8995L28.7822 32.9384ZM32.6 22.5496C32.3513 22.2184 31.8811 22.1516 31.5499 22.4003C31.2187 22.6491 31.1519 23.1192 31.4007 23.4504L32.6 22.5496ZM16.5993 23.4504C16.8481 23.1192 16.7813 22.6491 16.4501 22.4003C16.1189 22.1516 15.6487 22.2184 15.4 22.5496L16.5993 23.4504ZM23.25 29C23.25 29.4142 23.5858 29.75 24 29.75C24.4142 29.75 24.75 29.4142 24.75 29H23.25ZM19.4123 18.534C19.155 18.8586 19.2095 19.3303 19.534 19.5877C19.8586 19.845 20.3303 19.7905 20.5877 19.466L19.4123 18.534ZM21.3978 17.237L20.8102 16.7711L21.3978 17.237ZM26.6022 17.237L27.1898 16.7711L26.6022 17.237ZM27.4123 19.466C27.6697 19.7905 28.1414 19.845 28.466 19.5877C28.7905 19.3303 28.845 18.8586 28.5877 18.534L27.4123 19.466ZM23.7493 15.0199L23.6313 14.2792L23.6313 14.2792L23.7493 15.0199ZM24.2507 15.0199L24.3687 14.2792L24.3687 14.2792L24.2507 15.0199ZM32.25 26V27H33.75V26H32.25ZM27 32.25H21V33.75H27V32.25ZM15.75 27V26H14.25V27H15.75ZM21 32.25C20.0423 32.25 19.6508 32.2477 19.3352 32.1977L19.1005 33.6792C19.5622 33.7523 20.0997 33.75 21 33.75V32.25ZM14.25 27C14.25 27.9003 14.2477 28.4378 14.3208 28.8995L15.8023 28.6648C15.7523 28.3492 15.75 27.9577 15.75 27H14.25ZM19.3352 32.1977C17.5166 31.9096 16.0904 30.4834 15.8023 28.6648L14.3208 28.8995C14.7105 31.3599 16.6401 33.2895 19.1005 33.6792L19.3352 32.1977ZM32.25 27C32.25 27.9577 32.2477 28.3492 32.1977 28.6648L33.6792 28.8995C33.7523 28.4378 33.75 27.9003 33.75 27H32.25ZM27 33.75C27.9003 33.75 28.4378 33.7523 28.8995 33.6792L28.6648 32.1977C28.3492 32.2477 27.9577 32.25 27 32.25V33.75ZM32.1977 28.6648C31.9096 30.4834 30.4834 31.9096 28.6648 32.1977L28.8995 33.6792C31.3599 33.2895 33.2895 31.3599 33.6792 28.8995L32.1977 28.6648ZM33.75 26C33.75 24.7064 33.3219 23.5106 32.6 22.5496L31.4007 23.4504C31.9342 24.1607 32.25 25.0424 32.25 26H33.75ZM15.75 26C15.75 25.0424 16.0658 24.1607 16.5993 23.4504L15.4 22.5496C14.6781 23.5106 14.25 24.7064 14.25 26H15.75ZM24.75 29V16H23.25V29H24.75ZM20.5877 19.466L21.9855 17.703L20.8102 16.7711L19.4123 18.534L20.5877 19.466ZM26.0145 17.703L27.4123 19.466L28.5877 18.534L27.1898 16.7711L26.0145 17.703ZM21.9855 17.703C22.5543 16.9857 22.9418 16.4988 23.2682 16.1711C23.5913 15.8468 23.7612 15.7775 23.8673 15.7605L23.6313 14.2792C23.0582 14.3706 22.6096 14.7068 22.2055 15.1125C21.8047 15.5148 21.3562 16.0824 20.8102 16.7711L21.9855 17.703ZM27.1898 16.7711C26.6438 16.0825 26.1953 15.5148 25.7945 15.1125C25.3904 14.7068 24.9418 14.3706 24.3687 14.2792L24.1327 15.7605C24.2388 15.7775 24.4087 15.8468 24.7318 16.1711C25.0582 16.4988 25.4457 16.9857 26.0145 17.703L27.1898 16.7711ZM23.8673 15.7605C23.9117 15.7535 23.9559 15.75 24 15.75V14.25C23.8766 14.25 23.7534 14.2598 23.6313 14.2792L23.8673 15.7605ZM24 15.75C24.0441 15.75 24.0883 15.7535 24.1327 15.7605L24.3687 14.2792C24.2466 14.2598 24.1234 14.25 24 14.25V15.75ZM24.75 16V15H23.25V16H24.75Z" fill="white"/>
</svg>
