<svg width="48" height="48" viewBox="0 0 48 48" fill="none" xmlns="http://www.w3.org/2000/svg">
<rect width="48" height="48" rx="24" fill="#AC8964"/>
<path d="M27 29H23M20 29H18M14.011 22C14 22.577 14 23.2365 14 24C14 26.8003 14 28.2004 14.545 29.27C15.0243 30.2108 15.7892 30.9757 16.73 31.455C17.7996 32 19.1997 32 22 32H26C28.8003 32 30.2004 32 31.27 31.455C32.2108 30.9757 32.9757 30.2108 33.455 29.27C34 28.2004 34 26.8003 34 24C34 23.2365 34 22.577 33.989 22M14.011 22C14.0405 20.4608 14.1486 19.508 14.545 18.73C15.0243 17.7892 15.7892 17.0243 16.73 16.545C17.7996 16 19.1997 16 22 16H26C28.8003 16 30.2004 16 31.27 16.545C32.2108 17.0243 32.9757 17.7892 33.455 18.73C33.8514 19.508 33.9595 20.4608 33.989 22M14.011 22H33.989" stroke="#FAFAFA" stroke-width="1.5" stroke-linecap="round"/>
</svg>
