<svg width="16" height="16" viewBox="0 0 16 16" fill="none" xmlns="http://www.w3.org/2000/svg">
<path fill-rule="evenodd" clip-rule="evenodd" d="M8 0C3.58172 0 0 3.58172 0 8C0 12.4183 3.58172 16 8 16C12.4183 16 16 12.4183 16 8C16 3.58172 12.4183 0 8 0ZM6.53033 5.46967C6.23744 5.17678 5.76256 5.17678 5.46967 5.46967C5.17678 5.76256 5.17678 6.23744 5.46967 6.53033L7.06066 8.12132L5.46967 9.71231C5.17678 10.0052 5.17678 10.4801 5.46967 10.773C5.76256 11.0659 6.23744 11.0659 6.53033 10.773L8.12132 9.18198L9.71231 10.773C10.0052 11.0659 10.4801 11.0659 10.773 10.773C11.0659 10.4801 11.0659 10.0052 10.773 9.71231L9.18198 8.12132L10.773 6.53033C11.0659 6.23744 11.0659 5.76256 10.773 5.46967C10.4801 5.17678 10.0052 5.17678 9.71231 5.46967L8.12132 7.06066L6.53033 5.46967Z" fill="white"/>
</svg>
