<svg width="15" height="17" viewBox="0 0 15 17" fill="none" xmlns="http://www.w3.org/2000/svg">
<path d="M9.33588 15.0601C9.06821 15.6619 8.89127 16.3151 8.82349 17L14.4879 15.779C14.7556 15.1773 14.9324 14.524 15.0003 13.8391L9.33588 15.0601Z" fill="#AC8964"/>
<path d="M14.4876 12.1209C14.7553 11.5192 14.9322 10.8659 15 10.181L10.5876 11.1326V9.30326L14.4875 8.46286C14.7551 7.86114 14.9321 7.20787 14.9999 6.52294L10.5874 7.47375V0.894794C9.91131 1.27975 9.31085 1.79216 8.82274 2.39658V7.85424L7.05806 8.23459V0C6.38195 0.384817 5.78149 0.897365 5.29338 1.50179V8.61481L1.34489 9.46563C1.07722 10.0673 0.900155 10.7206 0.832236 11.4055L5.29338 10.4442V12.7479L0.512392 13.7782C0.24472 14.3799 0.0677852 15.0332 0 15.7181L5.00436 14.6397C5.41174 14.5538 5.76187 14.3095 5.98951 13.9734L6.90728 12.5937C7.00255 12.4509 7.05806 12.2786 7.05806 12.0932V10.0638L8.82274 9.68347V13.3422L14.4876 12.1209Z" fill="#AC8964"/>
</svg>
