<svg width="22" height="24" viewBox="0 0 22 24" fill="none" xmlns="http://www.w3.org/2000/svg">
<path d="M4.93237 5.38642L4.75001 6.11391L4.93237 5.38642ZM8.30692 3.43812L7.58572 3.2323L8.30692 3.43812ZM2.23886 10.0517L2.77771 9.53005L2.23886 10.0517ZM2.23886 13.9483L1.70001 13.4266H1.70001L2.23886 13.9483ZM4.93237 18.6136L5.11472 19.3411L4.93237 18.6136ZM8.30692 20.5619L7.58572 20.7677L8.30692 20.5619ZM13.6939 20.5619L14.4151 20.7677L13.6939 20.5619ZM17.0685 18.6136L17.2509 17.8861L17.0685 18.6136ZM19.762 13.9483L19.2232 14.47V14.47L19.762 13.9483ZM19.762 10.0517L19.2232 9.53005V9.53005L19.762 10.0517ZM17.0685 5.38642L16.8861 4.65893L17.0685 5.38642ZM13.6939 3.43812L14.4151 3.2323L13.6939 3.43812ZM4.75001 6.11391C6.60892 6.57987 8.50221 5.48678 9.02813 3.64394L7.58572 3.2323C7.28195 4.2967 6.18841 4.92806 5.11472 4.65893L4.75001 6.11391ZM2.77771 9.53005C1.34244 8.04752 2.74847 5.6122 4.75001 6.11391L5.11472 4.65893C1.64939 3.7903 -0.784913 8.00664 1.70001 10.5734L2.77771 9.53005ZM2.77771 14.47C4.11069 13.0931 4.11069 10.9069 2.77771 9.53005L1.70001 10.5734C2.46993 11.3687 2.46992 12.6314 1.70001 13.4266L2.77771 14.47ZM4.75001 17.8861C2.74847 18.3878 1.34244 15.9525 2.77771 14.47L1.70001 13.4266C-0.784914 15.9934 1.64939 20.2097 5.11472 19.3411L4.75001 17.8861ZM9.02813 20.3561C8.50221 18.5133 6.60892 17.4202 4.75001 17.8861L5.11472 19.3411C6.18841 19.072 7.28195 19.7033 7.58572 20.7677L9.02813 20.3561ZM12.9727 20.3561C12.4065 22.3403 9.59441 22.3403 9.02813 20.3561L7.58572 20.7677C8.56613 24.2031 13.4347 24.2031 14.4151 20.7677L12.9727 20.3561ZM17.2509 17.8861C15.3919 17.4202 13.4987 18.5133 12.9727 20.3561L14.4151 20.7677C14.7189 19.7033 15.8125 19.072 16.8861 19.3411L17.2509 17.8861ZM19.2232 14.47C20.6584 15.9525 19.2524 18.3878 17.2509 17.8861L16.8861 19.3411C20.3515 20.2097 22.7858 15.9934 20.3009 13.4266L19.2232 14.47ZM19.2232 9.53005C17.8902 10.9069 17.8902 13.0931 19.2232 14.47L20.3009 13.4266C19.5309 12.6314 19.5309 11.3687 20.3009 10.5734L19.2232 9.53005ZM17.2509 6.11391C19.2524 5.6122 20.6584 8.04752 19.2232 9.53005L20.3009 10.5734C22.7858 8.00664 20.3515 3.7903 16.8861 4.65893L17.2509 6.11391ZM12.9727 3.64394C13.4987 5.48678 15.3919 6.57987 17.2509 6.11391L16.8861 4.65893C15.8125 4.92806 14.7189 4.2967 14.4151 3.2323L12.9727 3.64394ZM14.4151 3.2323C13.4347 -0.203084 8.56613 -0.203083 7.58572 3.2323L9.02813 3.64394C9.59441 1.6597 12.4065 1.6597 12.9727 3.64394L14.4151 3.2323ZM7.25043 12C7.25043 14.0711 8.92937 15.75 11.0004 15.75V14.25C9.75779 14.25 8.75043 13.2427 8.75043 12H7.25043ZM11.0004 15.75C13.0715 15.75 14.7504 14.0711 14.7504 12H13.2504C13.2504 13.2427 12.2431 14.25 11.0004 14.25V15.75ZM14.7504 12C14.7504 9.92895 13.0715 8.25001 11.0004 8.25001V9.75002C12.2431 9.75002 13.2504 10.7574 13.2504 12H14.7504ZM11.0004 8.25001C8.92937 8.25001 7.25043 9.92895 7.25043 12H8.75043C8.75043 10.7574 9.75779 9.75002 11.0004 9.75002V8.25001Z" fill="#15120F"/>
</svg>
