<svg width="48" height="48" viewBox="0 0 48 48" fill="none" xmlns="http://www.w3.org/2000/svg">
<rect width="48" height="48" rx="24" fill="#AC8964"/>
<path d="M17.0611 33.0451L17.5019 32.4383L17.0611 33.0451ZM15.9549 31.9389L16.5617 31.4981L15.9549 31.9389ZM32.0451 31.9389L31.4383 31.4981L32.0451 31.9389ZM30.9389 33.0451L30.4981 32.4383L30.9389 33.0451ZM30.9389 14.9549L30.4981 15.5617L30.9389 14.9549ZM32.0451 16.0611L31.4383 16.5019L32.0451 16.0611ZM17.0611 14.9549L17.5019 15.5617L17.0611 14.9549ZM15.9549 16.0611L16.5617 16.5019L15.9549 16.0611ZM20 27.25C19.5858 27.25 19.25 27.5858 19.25 28C19.25 28.4142 19.5858 28.75 20 28.75V27.25ZM28 28.75C28.4142 28.75 28.75 28.4142 28.75 28C28.75 27.5858 28.4142 27.25 28 27.25V28.75ZM20 23.25C19.5858 23.25 19.25 23.5858 19.25 24C19.25 24.4142 19.5858 24.75 20 24.75V23.25ZM28 24.75C28.4142 24.75 28.75 24.4142 28.75 24C28.75 23.5858 28.4142 23.25 28 23.25V24.75ZM20 19.25C19.5858 19.25 19.25 19.5858 19.25 20C19.25 20.4142 19.5858 20.75 20 20.75V19.25ZM28 20.75C28.4142 20.75 28.75 20.4142 28.75 20C28.75 19.5858 28.4142 19.25 28 19.25V20.75ZM32.25 23V25H33.75V23H32.25ZM15.75 25V23H14.25V25H15.75ZM24 33.25C22.1084 33.25 20.75 33.249 19.698 33.135C18.6601 33.0225 18.0099 32.8074 17.5019 32.4383L16.6202 33.6518C17.4266 34.2377 18.3709 34.5 19.5365 34.6263C20.688 34.751 22.1418 34.75 24 34.75V33.25ZM14.25 25C14.25 26.8582 14.249 28.312 14.3737 29.4635C14.5 30.6291 14.7623 31.5734 15.3482 32.3798L16.5617 31.4981C16.1926 30.9901 15.9775 30.3399 15.865 29.302C15.751 28.25 15.75 26.8916 15.75 25H14.25ZM17.5019 32.4383C17.1411 32.1762 16.8238 31.8589 16.5617 31.4981L15.3482 32.3798C15.7028 32.8679 16.1321 33.2972 16.6202 33.6518L17.5019 32.4383ZM32.25 25C32.25 26.8916 32.249 28.25 32.135 29.302C32.0225 30.3399 31.8074 30.9901 31.4383 31.4981L32.6518 32.3798C33.2377 31.5734 33.5 30.6291 33.6263 29.4635C33.751 28.312 33.75 26.8582 33.75 25H32.25ZM24 34.75C25.8582 34.75 27.312 34.751 28.4635 34.6263C29.6291 34.5 30.5734 34.2377 31.3798 33.6518L30.4981 32.4383C29.9901 32.8074 29.3399 33.0225 28.302 33.135C27.25 33.249 25.8916 33.25 24 33.25V34.75ZM31.4383 31.4981C31.1762 31.8589 30.8589 32.1762 30.4981 32.4383L31.3798 33.6518C31.8679 33.2972 32.2972 32.8679 32.6518 32.3798L31.4383 31.4981ZM24 14.75C25.8916 14.75 27.25 14.751 28.302 14.865C29.3399 14.9775 29.9901 15.1926 30.4981 15.5617L31.3798 14.3482C30.5734 13.7623 29.6291 13.5 28.4635 13.3737C27.312 13.249 25.8582 13.25 24 13.25V14.75ZM33.75 23C33.75 21.1418 33.751 19.688 33.6263 18.5365C33.5 17.3709 33.2377 16.4266 32.6518 15.6202L31.4383 16.5019C31.8074 17.0099 32.0225 17.6601 32.135 18.698C32.249 19.75 32.25 21.1084 32.25 23H33.75ZM30.4981 15.5617C30.8589 15.8238 31.1762 16.1411 31.4383 16.5019L32.6518 15.6202C32.2972 15.1321 31.8679 14.7028 31.3798 14.3482L30.4981 15.5617ZM24 13.25C22.1418 13.25 20.688 13.249 19.5365 13.3737C18.3709 13.5 17.4266 13.7623 16.6202 14.3482L17.5019 15.5617C18.0099 15.1926 18.6601 14.9775 19.698 14.865C20.75 14.751 22.1084 14.75 24 14.75V13.25ZM15.75 23C15.75 21.1084 15.751 19.75 15.865 18.698C15.9775 17.6601 16.1926 17.0099 16.5617 16.5019L15.3482 15.6202C14.7623 16.4266 14.5 17.3709 14.3737 18.5365C14.249 19.688 14.25 21.1418 14.25 23H15.75ZM16.6202 14.3482C16.1321 14.7028 15.7028 15.1321 15.3482 15.6202L16.5617 16.5019C16.8238 16.1411 17.1411 15.8238 17.5019 15.5617L16.6202 14.3482ZM20 28.75H28V27.25H20V28.75ZM20 24.75H28V23.25H20V24.75ZM20 20.75H28V19.25H20V20.75Z" fill="#FAFAFA"/>
</svg>
