<svg width="32" height="11" viewBox="0 0 32 11" fill="none" xmlns="http://www.w3.org/2000/svg">
<path fill-rule="evenodd" clip-rule="evenodd" d="M8.00043 10.1334H5.231L3.15426 2.21051C3.05569 1.84605 2.8464 1.52386 2.53853 1.372C1.77022 0.990385 0.923594 0.686675 0 0.5335V0.228469H4.46134C5.07707 0.228469 5.53887 0.686675 5.61583 1.21883L6.69336 6.93386L9.46144 0.228469H12.1539L8.00043 10.1334ZM13.6937 10.1334H11.0782L13.2319 0.228469H15.8474L13.6937 10.1334ZM19.2312 2.9724C19.3081 2.43892 19.7699 2.13389 20.3087 2.13389C21.1553 2.0573 22.0776 2.21048 22.8472 2.59078L23.309 0.458206C22.5394 0.153175 21.6927 0 20.9244 0C18.3859 0 16.5387 1.37198 16.5387 3.27611C16.5387 4.72467 17.8471 5.48527 18.7707 5.94347C19.7699 6.40036 20.1547 6.70539 20.0778 7.16227C20.0778 7.8476 19.3081 8.15263 18.5398 8.15263C17.6162 8.15263 16.6926 7.92419 15.8473 7.54257L15.3855 9.67646C16.3091 10.0568 17.3083 10.2099 18.2319 10.2099C21.0783 10.2852 22.8472 8.91455 22.8472 6.85724C22.8472 4.26646 19.2312 4.11461 19.2312 2.9724ZM32 10.1334L29.9233 0.228469H27.6926C27.2308 0.228469 26.769 0.5335 26.6151 0.990385L22.7695 10.1334H25.4619L25.9993 8.68613H29.3075L29.6154 10.1334H32ZM28.0778 2.89582L28.8461 6.6288H26.6924L28.0778 2.89582Z" fill="#3457F2"/>
</svg>
