<svg width="48" height="48" viewBox="0 0 48 48" fill="none" xmlns="http://www.w3.org/2000/svg">
<rect width="48" height="48" rx="24" fill="#AC8964"/>
<path d="M34 20.4444C34 17.9898 32.0102 16 29.5556 16H18.4444C15.9898 16 14 17.9898 14 20.4444C14 20.9877 14.3116 21.4829 14.8014 21.718L15.2887 21.9519C17.007 22.7767 17.007 25.2233 15.2887 26.0481L14.8014 26.282C14.3116 26.5171 14 27.0123 14 27.5556C14 30.0102 15.9898 32 18.4444 32H29.5556C32.0102 32 34 30.0102 34 27.5556C34 27.0123 33.6884 26.5171 33.1986 26.282L32.7113 26.0481C30.993 25.2233 30.993 22.7767 32.7113 21.9519L33.1986 21.718C33.6884 21.4829 34 20.9877 34 20.4444Z" stroke="#FAFAFA" stroke-width="1.5"/>
<path d="M22 16L22 32" stroke="#FAFAFA" stroke-width="1.5" stroke-linecap="round" stroke-dasharray="2 3"/>
</svg>
